<?xml version="1.0" encoding="UTF-8"?>
<svg id="Layer_1" data-name="Layer 1" xmlns="http://www.w3.org/2000/svg" viewBox="0 0 734.62 681.87">
  <defs>
    <style>
      .cls-1, .cls-2, .cls-3, .cls-4 {
        stroke-width: 0px;
      }

      .cls-2 {
        fill: #f15a29;
      }

      .cls-3 {
        fill: #f7df1e;
      }

      .cls-5 {
        fill: #f9ed32;
        fill-rule: evenodd;
        stroke: #f9ed32;
        stroke-miterlimit: 10;
        stroke-width: 4px;
      }

      .cls-4 {
        fill: #fff200;
      }
    </style>
  </defs>
  <rect class="cls-2" width="734.62" height="681.87"/>
  <path class="cls-4" d="M119.94,125.66h247.37v49.85h-188.08v152.95h173.77v49.16h-173.77v208.26h-59.29V125.66Z"/>
  <g>
    <path class="cls-4" d="M211.01,195.08c.19,5.74-4.02,10.33-10.71,10.33-5.92,0-10.14-4.59-10.14-10.33s4.41-10.52,10.52-10.52,10.32,4.59,10.32,10.52ZM192.28,313.62v-92.54h16.81v92.54h-16.81Z"/>
    <path class="cls-4" d="M237.04,246.13c0-9.56-.2-17.4-.78-25.04h14.91l.97,15.3h.37c4.59-8.8,15.3-17.4,30.59-17.4,12.81,0,32.69,7.64,32.69,39.38v55.26h-16.81v-53.35c0-14.91-5.54-27.34-21.42-27.34-11.08,0-19.69,7.84-22.56,17.2-.76,2.1-1.15,4.97-1.15,7.84v55.64h-16.81v-67.5Z"/>
    <path class="cls-4" d="M361.94,195.08c.19,5.74-4.02,10.33-10.71,10.33-5.92,0-10.14-4.59-10.14-10.33s4.41-10.52,10.52-10.52,10.32,4.59,10.32,10.52ZM343.22,313.62v-92.54h16.81v92.54h-16.81Z"/>
    <path class="cls-4" d="M408.24,194.51v26.58h24.1v12.81h-24.1v49.9c0,11.47,3.25,17.98,12.63,17.98,4.39,0,7.64-.58,9.75-1.15l.76,12.61c-3.24,1.34-8.41,2.3-14.91,2.3-7.83,0-14.14-2.49-18.15-7.08-4.78-4.97-6.51-13.19-6.51-24.08v-50.48h-14.34v-12.81h14.34v-22.19l16.44-4.39Z"/>
    <path class="cls-4" d="M459.51,270.41c.39,22.75,14.91,32.13,31.74,32.13,12.05,0,19.3-2.1,25.63-4.78l2.86,12.03c-5.93,2.68-16.07,5.74-30.78,5.74-28.49,0-45.51-18.74-45.51-46.66s16.44-49.9,43.4-49.9c30.2,0,38.24,26.58,38.24,43.59,0,3.44-.39,6.12-.58,7.84h-65.01ZM508.85,258.36c.19-10.7-4.41-27.34-23.32-27.34-17.02,0-24.47,15.68-25.81,27.34h49.13Z"/>
  </g>
  <rect class="cls-3" x="240.33" y="438.46" width="144.55" height="144.55"/>
  <path class="cls-1" d="M337.43,551.39c2.91,4.75,6.7,8.25,13.4,8.25,5.63,0,9.22-2.81,9.22-6.7,0-4.66-3.69-6.31-9.89-9.02l-3.4-1.46c-9.8-4.18-16.31-9.41-16.31-20.47,0-10.19,7.76-17.94,19.89-17.94,8.64,0,14.84,3.01,19.32,10.88l-10.58,6.79c-2.33-4.18-4.84-5.82-8.74-5.82s-6.5,2.52-6.5,5.82c0,4.07,2.52,5.72,8.35,8.25l3.4,1.45c11.54,4.95,18.06,9.99,18.06,21.34,0,12.23-9.61,18.93-22.51,18.93s-20.76-6.01-24.75-13.89l11.04-6.41ZM289.44,552.57c2.13,3.79,4.07,6.99,8.74,6.99s7.28-1.75,7.28-8.54v-46.19h13.58v46.37c0,14.06-8.25,20.47-20.28,20.47-10.88,0-17.17-5.63-20.38-12.41l11.06-6.69Z"/>
  <path class="cls-5" d="M541.6,544.74c-13.37,5.21-31.08,8.08-49.87,8.08s-36.5-2.87-49.87-8.08c-14.33-5.58-22.22-13.38-22.22-21.97v-149.03c0-8.58,7.89-16.38,22.22-21.97,13.37-5.21,31.08-8.08,49.87-8.08s36.5,2.87,49.87,8.08c14.32,5.58,22.21,13.38,22.22,21.96,0,0,0,0,0,0v149.03c0,8.58-7.89,16.38-22.22,21.97ZM539.26,357.77c-12.64-4.93-29.52-7.64-47.53-7.64s-34.89,2.71-47.53,7.64c-11.52,4.49-18.12,10.31-18.12,15.98s6.61,11.49,18.12,15.98c12.64,4.92,29.52,7.64,47.53,7.64,6.75,0,13.35-.38,19.62-1.12,10.45-1.23,20.01-3.44,27.91-6.52,11.52-4.49,18.12-10.31,18.12-15.98s-6.61-11.49-18.12-15.98ZM557.38,386.52s-.01.01-.02.02c-.05.05-.11.1-.17.15-4.46,4.05-10.03,6.85-15.6,9.02-8.78,3.42-19.42,5.83-31.01,7.08-6.07.66-12.4,1-18.86,1-18.79,0-36.5-2.87-49.87-8.08-5.68-2.21-11.27-5.01-15.77-9.18,0,0,0,0-.01-.01v36.9c0,5.67,6.61,11.49,18.12,15.98,10.67,4.16,24.35,6.74,39.18,7.44,2.78.13,5.56.2,8.35.2,19.91,0,43.37-1.46,59.68-14.17,2.17-1.69,4.19-3.69,5.28-6.25.43-1,.69-2.1.69-3.19v-36.9h0ZM557.38,436.2s0,0-.01.01c-1.03.95-2.13,1.83-3.27,2.64-7.1,5.07-15.62,8.04-24.01,10.18-6.94,1.77-14.58,3.03-22.63,3.75-.07,0-.14.01-.21.02-2.65.23-5.34.4-8.07.52-2.46.1-4.95.15-7.46.15-18.79,0-36.5-2.87-49.87-8.08-5.58-2.17-11.12-4.96-15.58-9-.06-.06-.13-.11-.19-.17,0,0-.01,0-.02-.01v36.9c0,5.67,6.61,11.49,18.12,15.98,12.64,4.93,29.52,7.64,47.53,7.64,4.85,0,9.62-.2,14.25-.58.33-.03.66-.06.99-.08,12.16-1.08,23.29-3.47,32.29-6.97,4.91-1.91,8.93-4.07,11.92-6.35,2.52-1.92,5-4.36,5.9-7.49,0-.02,0-.04.02-.06.19-.67.29-1.37.29-2.07v-36.9h0ZM557.38,485.87s-.01,0-.02.01c-.07.06-.15.13-.22.19-1.04.94-2.15,1.82-3.3,2.62-3.78,2.65-7.96,4.69-12.26,6.36-11.64,4.53-26.58,7.29-42.64,7.93-2.38.09-4.79.14-7.22.14-18.79,0-36.5-2.87-49.87-8.08-5.59-2.18-11.08-4.93-15.56-8.98-.07-.06-.15-.13-.22-.19,0,0-.01,0-.02-.01v36.9c0,5.67,6.61,11.49,18.12,15.98,12.64,4.93,29.52,7.64,47.53,7.64s34.89-2.71,47.53-7.64c11.52-4.49,18.12-10.31,18.12-15.98h0v-36.9h0ZM545.88,518.91c-3.25,0-5.88-2.63-5.88-5.87s2.63-5.87,5.88-5.87,5.88,2.63,5.88,5.87-2.63,5.87-5.88,5.87ZM525.47,525.05c-3.25,0-5.88-2.63-5.88-5.87s2.63-5.87,5.88-5.87,5.88,2.63,5.88,5.87-2.63,5.87-5.88,5.87ZM503.82,528.42c-3.25,0-5.88-2.63-5.88-5.87s2.63-5.87,5.88-5.87,5.88,2.63,5.88,5.87-2.63,5.87-5.88,5.87ZM545.88,469.65c-3.25,0-5.88-2.63-5.88-5.87s2.63-5.87,5.88-5.87,5.88,2.63,5.88,5.87-2.63,5.87-5.88,5.87ZM525.47,475.8c-3.25,0-5.88-2.63-5.88-5.87s2.63-5.87,5.88-5.87,5.88,2.63,5.88,5.87-2.63,5.87-5.88,5.87ZM503.82,479.17c-3.25,0-5.88-2.63-5.88-5.87s2.63-5.87,5.88-5.87,5.88,2.63,5.88,5.87-2.63,5.87-5.88,5.87ZM545.88,419.54c-3.25,0-5.88-2.63-5.88-5.87s2.63-5.87,5.88-5.87,5.88,2.63,5.88,5.87-2.63,5.87-5.88,5.87ZM525.47,425.69c-3.25,0-5.88-2.63-5.88-5.87s2.63-5.87,5.88-5.87,5.88,2.63,5.88,5.87-2.63,5.87-5.88,5.87ZM503.82,429.06c-3.25,0-5.88-2.63-5.88-5.87s2.63-5.87,5.88-5.87,5.88,2.63,5.88,5.87-2.63,5.87-5.88,5.87Z"/>
</svg>